# xmcd
#
# Track frame offsets:
#	150
#	11781
#	21475
#	31850
#	44821
#	60944
#	69363
#	82033
#	94987
#	107359
#	119532
#	131445
#	143009
#	154985
#	167303
#	179678
#	192067
#	204272
#	216027
#	227047
#
# Disc length: 3158 seconds
#
# Revision: 0
# Processed by: cddbd v1.5.2PL0 Copyright (c) Steve Scherf et al.
# Submitted via: EasyCDDAExtractor 11.1.0.1
#
DISCID=100c5414
DTITLE=Various Artist - The Country Colection Walking after midnight
DYEAR=2008
DGENRE=country
TTITLE0=Patsy Cline - Walking after midnight
TTITLE1=Elvis Presley - True love
TTITLE2=Les Paul and Mary Ford - Mockingbird Hill
TTITLE3=Carter Family - Bury me beneath the willow 
TTITLE4=Willie Nelson - Stardust
TTITLE5=Johnny Cash - Country boy
TTITLE6=Red Foley - Chattanooga shoe shine boy
TTITLE7=Eddy Arnold - Then I turned and walked slowly away
TTITLE8=Gene Autry - Be honest with me
TTITLE9=Webb Pierce - I'll go on alone
TTITLE10=Frankie Laine - Answer me Lord above
TTITLE11=Kitty Wells - Hey Joe
TTITLE12=Hank Snow - I went to your wedding
TTITLE13=Leon Payne - I love you because
TTITLE14=Marty Robbins - Tomorrow you'll be gone
TTITLE15=Skeets McDonald - Don't let the stars get into your eyes
TTITLE16=Hank Williams - Your cheating heart
TTITLE17=Jim Reeves - According to my heart
TTITLE18=Patsy Cline - A stranger in my arms
TTITLE19=Willie Nelson - On the road again
EXTD=
EXTT0=
EXTT1=
EXTT2=
EXTT3=
EXTT4=
EXTT5=
EXTT6=
EXTT7=
EXTT8=
EXTT9=
EXTT10=
EXTT11=
EXTT12=
EXTT13=
EXTT14=
EXTT15=
EXTT16=
EXTT17=
EXTT18=
EXTT19=
PLAYORDER=
